<?xml version="1.0" encoding="UTF-8" standalone="no"?>
<svg
   xmlns:dc="http://purl.org/dc/elements/1.1/"
   xmlns:cc="http://creativecommons.org/ns#"
   xmlns:rdf="http://www.w3.org/1999/02/22-rdf-syntax-ns#"
   xmlns:svg="http://www.w3.org/2000/svg"
   xmlns="http://www.w3.org/2000/svg"
   xmlns:sodipodi="http://sodipodi.sourceforge.net/DTD/sodipodi-0.dtd"
   xmlns:inkscape="http://www.inkscape.org/namespaces/inkscape"
   height="261"
   width="220"
   version="1.1"
   id="svg6"
   sodipodi:docname="University_of_Los_Andes_logo.svg"
   inkscape:version="0.92.3 (2405546, 2018-03-11)">
  <metadata
     id="metadata12">
    <rdf:RDF>
      <cc:Work
         rdf:about="">
        <dc:format>image/svg+xml</dc:format>
        <dc:type
           rdf:resource="http://purl.org/dc/dcmitype/StillImage" />
        <dc:title></dc:title>
      </cc:Work>
    </rdf:RDF>
  </metadata>
  <defs
     id="defs10" />
  <sodipodi:namedview
     pagecolor="#ffffff"
     bordercolor="#666666"
     borderopacity="1"
     objecttolerance="10"
     gridtolerance="10"
     guidetolerance="10"
     inkscape:pageopacity="0"
     inkscape:pageshadow="2"
     inkscape:window-width="1366"
     inkscape:window-height="708"
     id="namedview8"
     showgrid="false"
     inkscape:snap-text-baseline="true"
     inkscape:zoom="0.45210728"
     inkscape:cx="563.04828"
     inkscape:cy="98.142275"
     inkscape:window-x="0"
     inkscape:window-y="31"
     inkscape:window-maximized="1"
     inkscape:current-layer="svg6">
    <inkscape:grid
       type="xygrid"
       id="grid30" />
  </sodipodi:namedview>
  <path
     style="fill:#fdf21c"
     d="m 100.771,259.969 c -22.035,-2.221 -30.387,-4.817 -43.710,-8.771 -4.390,-1.303 -10.495,-2.785 -13.529,-3.781 C 25.673,241.557 7.579,227.227 2.447,216.209 0.530,212.094 0.516,211.435 0.271,113.002 0.077,33.904 0.261,13.746 1.191,12.982 3.630,10.981 50.077,4.469 78.280,2.173 c 30.112,-2.450 55.380,-1.566 93.700,3.277 17.110,2.162 43.753,6.162 46.217,6.938 1.547,0.486 1.615,5.496 1.378,100.554 l -0.248,100.041 -2.724,5.384 c -3.379,6.677 -9.232,12.034 -19.717,18.041 -29.585,16.952 -67.760,26.412 -96.114,23.553 z"
     id="path2" />
  <path
     style="fill:#000000"
     d="m 112.069,260.273 c -0.382,-0.400 -0.696,-5.080 -0.696,-10.400 0,0 -1.215,-6.685 0,-9.671 0.913,-2.242 5.075,-5.198 5.075,-5.198 3.505,-3.589 5.836,-7.082 7.535,-11.287 2.773,-6.866 2.787,0.103 -0.116,-58.991 -1.951,-39.728 -4.447,-62.504 -8.884,-81.094 -1.507,-6.316 -3.741,-18.362 -4.962,-26.768 -2.080,-14.320 -2.688,-16.946 -3.692,-15.943 -1.265,1.265 -5.540,32.371 -14.847,108.029 -2.259,18.376 -4.390,34.140 -4.734,35.031 -0.860,2.227 -2.113,1.223 -1.701,-1.364 0.184,-1.160 1.587,-24.245 3.117,-51.300 4.239,-74.964 6.113,-89.026 14.347,-107.644 1.245,-2.816 2.763,-5.121 3.373,-5.121 3.331,0 8.946,12.267 13.592,29.699 10.201,38.272 9.963,37.199 14.674,66.359 1.236,7.657 3.085,18.516 4.106,24.131 3.011,16.552 2.469,59.029 -0.972,76.282 -0.722,3.620 -2.214,6.385 -6.009,11.137 -6.726,8.419 -8.764,12.939 -8.764,19.433 0,3.905 0.413,5.558 1.624,6.477 2.399,1.820 13.612,1.585 20.186,-0.425 15.324,-4.687 37.452,-16.724 44.086,-23.982 7.919,-8.665 7.423,-1.535 7.423,-106.688 0,-88.275 -0.084,-93.123 -1.651,-93.961 -2.049,-1.097 -22.385,-6.799 -31.760,-8.906 -42.767,-9.617 -68.332,-9.298 -110.448,1.368 -7.912,2.003 -17.309,4.598 -20.882,5.767 l -6.496,2.123 -0.240,92.809 c -0.207,80.315 -0.048,93.838 1.187,100.453 1.613,8.636 3.788,14.285 7.065,18.349 4.961,6.152 4.949,6.131 3.022,5.416 C 31.429,242.834 20.583,236.551 15.139,232.521 8.781,227.815 2.757,220.491 1.054,215.397 0.293,213.119 0,184.425 0,112.162 L 0,12.081 2.087,11.624 C 25.997,6.390 85.418,-0.039 109.496,1.8486467e-4 125.217,0.025 157.673,2.630 179.125,5.588 c 16.936,2.335 38.617,5.830 39.702,6.401 0.951,0.499 1.182,20.485 1.171,101.111 -0.013,98.317 -0.053,100.578 -1.861,104.668 -4.087,9.242 -11.328,15.236 -29.479,24.403 -21.036,10.625 -44.826,17.257 -65.684,18.312 -5.615,0.284 -10.522,0.188 -10.905,-0.211 z"
     id="path4" />
  <text
     xml:space="preserve"
     style="font-style:normal;font-weight:normal;font-size:40px;line-height:1.25;font-family:sans-serif;letter-spacing:0px;word-spacing:0px;fill:#000000;fill-opacity:1;stroke:none"
     x="620.26514"
     y="318.66568"
     id="text28"><tspan
       sodipodi:role="line"
       id="tspan26"
       x="620.26514"
       y="318.66568"
       style="font-style:normal;font-variant:normal;font-weight:normal;font-stretch:normal;font-size:53.33333206px;font-family:Dax;-inkscape-font-specification:'Dax, Normal';font-variant-ligatures:normal;font-variant-caps:normal;font-variant-numeric:normal;font-feature-settings:normal;text-align:start;writing-mode:lr-tb;text-anchor:start">Colombia</tspan></text>
  <text
     xml:space="preserve"
     style="font-style:normal;font-weight:normal;font-size:40px;line-height:1.25;font-family:sans-serif;letter-spacing:0px;word-spacing:0px;fill:#000000;fill-opacity:1;stroke:none"
     x="1194.4069"
     y="22.118645"
     id="text43"><tspan
       sodipodi:role="line"
       id="tspan41"
       x="1194.4069"
       y="57.50927" /></text>
  <text
     xml:space="preserve"
     style="font-style:normal;font-variant:normal;font-weight:normal;font-stretch:normal;font-size:80px;line-height:1.25;font-family:Dax;-inkscape-font-specification:Dax;letter-spacing:0px;word-spacing:0px;fill:#000000;fill-opacity:1;stroke:none"
     x="269.84741"
     y="70.779663"
     id="text47"><tspan
       sodipodi:role="line"
       id="tspan45"
       x="269.84741"
       y="70.779663"
       style="font-style:normal;font-variant:normal;font-weight:normal;font-stretch:normal;font-size:90.66666667px;font-family:Dax;-inkscape-font-specification:'Dax, Normal';font-variant-ligatures:normal;font-variant-caps:normal;font-variant-numeric:normal;font-feature-settings:normal;text-align:start;writing-mode:lr;text-anchor:start;letter-spacing:-0.47px">Universidad de</tspan><tspan
       sodipodi:role="line"
       x="269.84741"
       y="211.05299"
       id="tspan49"
       style="font-style:normal;font-variant:normal;font-weight:normal;font-stretch:normal;font-size:140px;line-height:1;font-family:Dax;-inkscape-font-specification:'Dax, Normal';font-variant-ligatures:normal;font-variant-caps:normal;font-variant-numeric:normal;font-feature-settings:normal;text-align:start;writing-mode:lr-tb;text-anchor:start;letter-spacing:-0.47px">los Andes</tspan></text>
</svg>
